<mxfile host="app.diagrams.net" modified="2024-06-28T00:30:42.607Z" agent="Mozilla/5.0 (Windows NT 10.0; Win64; x64) AppleWebKit/537.36 (KHTML, like Gecko) Chrome/126.0.0.0 Safari/537.36" etag="Qws0C9M-fJOuIUEGGKBQ" version="24.6.3" type="device">
  <diagram name="Trang-1" id="xBz8asmsFSSFi-mHdcRs">
    <mxGraphModel dx="1690" dy="530" grid="0" gridSize="10" guides="1" tooltips="1" connect="1" arrows="1" fold="1" page="0" pageScale="1" pageWidth="827" pageHeight="1169" math="0" shadow="0">
      <root>
        <mxCell id="0" />
        <mxCell id="1" parent="0" />
        <mxCell id="jqRXlXrDx0l3PTKRaGQS-3" value="Raspberry Pi&amp;nbsp;" style="shape=ext;double=1;rounded=0;whiteSpace=wrap;html=1;" parent="1" vertex="1">
          <mxGeometry x="398" y="333" width="120" height="80" as="geometry" />
        </mxCell>
        <mxCell id="jqRXlXrDx0l3PTKRaGQS-7" style="edgeStyle=none;curved=1;rounded=0;orthogonalLoop=1;jettySize=auto;html=1;fontSize=12;startSize=8;endSize=8;" parent="1" source="jqRXlXrDx0l3PTKRaGQS-4" target="jqRXlXrDx0l3PTKRaGQS-5" edge="1">
          <mxGeometry relative="1" as="geometry" />
        </mxCell>
        <mxCell id="jqRXlXrDx0l3PTKRaGQS-15" style="edgeStyle=none;curved=1;rounded=0;orthogonalLoop=1;jettySize=auto;html=1;exitX=0.75;exitY=1;exitDx=0;exitDy=0;entryX=0.75;entryY=0;entryDx=0;entryDy=0;fontSize=12;startSize=8;endSize=8;" parent="1" source="jqRXlXrDx0l3PTKRaGQS-4" target="jqRXlXrDx0l3PTKRaGQS-6" edge="1">
          <mxGeometry relative="1" as="geometry" />
        </mxCell>
        <mxCell id="jqRXlXrDx0l3PTKRaGQS-4" value="Frontend Vue" style="shape=ext;double=1;rounded=0;whiteSpace=wrap;html=1;" parent="1" vertex="1">
          <mxGeometry x="19" y="186" width="120" height="80" as="geometry" />
        </mxCell>
        <mxCell id="jqRXlXrDx0l3PTKRaGQS-8" style="edgeStyle=none;curved=1;rounded=0;orthogonalLoop=1;jettySize=auto;html=1;fontSize=12;startSize=8;endSize=8;exitX=0;exitY=0.25;exitDx=0;exitDy=0;entryX=1;entryY=0.25;entryDx=0;entryDy=0;" parent="1" source="jqRXlXrDx0l3PTKRaGQS-5" target="jqRXlXrDx0l3PTKRaGQS-4" edge="1">
          <mxGeometry relative="1" as="geometry">
            <mxPoint x="301.3999938964844" y="208.5999755859375" as="targetPoint" />
          </mxGeometry>
        </mxCell>
        <mxCell id="jqRXlXrDx0l3PTKRaGQS-5" value="Server C# Web API" style="shape=ext;double=1;rounded=0;whiteSpace=wrap;html=1;" parent="1" vertex="1">
          <mxGeometry x="393" y="186" width="171" height="80" as="geometry" />
        </mxCell>
        <mxCell id="jqRXlXrDx0l3PTKRaGQS-14" style="edgeStyle=none;curved=1;rounded=0;orthogonalLoop=1;jettySize=auto;html=1;entryX=0.5;entryY=1;entryDx=0;entryDy=0;fontSize=12;startSize=8;endSize=8;" parent="1" source="jqRXlXrDx0l3PTKRaGQS-6" target="jqRXlXrDx0l3PTKRaGQS-4" edge="1">
          <mxGeometry relative="1" as="geometry" />
        </mxCell>
        <mxCell id="jqRXlXrDx0l3PTKRaGQS-6" value="Server Python Flask + Web Socket" style="shape=ext;double=1;rounded=0;whiteSpace=wrap;html=1;" parent="1" vertex="1">
          <mxGeometry x="19" y="339" width="120" height="80" as="geometry" />
        </mxCell>
        <mxCell id="jqRXlXrDx0l3PTKRaGQS-9" value="HTTP Request" style="text;strokeColor=none;fillColor=none;html=1;fontSize=24;fontStyle=1;verticalAlign=middle;align=center;" parent="1" vertex="1">
          <mxGeometry x="235" y="184" width="45" height="15" as="geometry" />
        </mxCell>
        <mxCell id="jqRXlXrDx0l3PTKRaGQS-11" value="HTTP Response" style="text;strokeColor=none;fillColor=none;html=1;fontSize=24;fontStyle=1;verticalAlign=middle;align=center;" parent="1" vertex="1">
          <mxGeometry x="241" y="234" width="45" height="15" as="geometry" />
        </mxCell>
        <mxCell id="jqRXlXrDx0l3PTKRaGQS-12" style="edgeStyle=none;curved=1;rounded=0;orthogonalLoop=1;jettySize=auto;html=1;entryX=1.007;entryY=0.41;entryDx=0;entryDy=0;entryPerimeter=0;fontSize=12;startSize=8;endSize=8;" parent="1" source="jqRXlXrDx0l3PTKRaGQS-3" target="jqRXlXrDx0l3PTKRaGQS-6" edge="1">
          <mxGeometry relative="1" as="geometry" />
        </mxCell>
        <mxCell id="jqRXlXrDx0l3PTKRaGQS-13" value="HTTP Request" style="text;strokeColor=none;fillColor=none;html=1;fontSize=24;fontStyle=1;verticalAlign=middle;align=center;" parent="1" vertex="1">
          <mxGeometry x="207.5" y="339" width="100" height="40" as="geometry" />
        </mxCell>
        <mxCell id="jqRXlXrDx0l3PTKRaGQS-16" value="Web Socket" style="text;strokeColor=none;fillColor=none;html=1;fontSize=24;fontStyle=1;verticalAlign=middle;align=center;" parent="1" vertex="1">
          <mxGeometry x="-43" y="283" width="100" height="40" as="geometry" />
        </mxCell>
        <mxCell id="jqRXlXrDx0l3PTKRaGQS-17" style="edgeStyle=none;curved=1;rounded=0;orthogonalLoop=1;jettySize=auto;html=1;exitX=0.75;exitY=1;exitDx=0;exitDy=0;fontSize=12;startSize=8;endSize=8;" parent="1" source="jqRXlXrDx0l3PTKRaGQS-16" target="jqRXlXrDx0l3PTKRaGQS-16" edge="1">
          <mxGeometry relative="1" as="geometry" />
        </mxCell>
        <mxCell id="JNUHl_wFCpTW7_nnJJKe-21" style="edgeStyle=orthogonalEdgeStyle;rounded=0;orthogonalLoop=1;jettySize=auto;html=1;" edge="1" parent="1">
          <mxGeometry relative="1" as="geometry">
            <mxPoint x="27" y="711" as="sourcePoint" />
            <mxPoint x="526" y="711" as="targetPoint" />
            <Array as="points" />
          </mxGeometry>
        </mxCell>
        <mxCell id="JNUHl_wFCpTW7_nnJJKe-26" style="edgeStyle=orthogonalEdgeStyle;rounded=0;orthogonalLoop=1;jettySize=auto;html=1;entryX=0;entryY=0.25;entryDx=0;entryDy=0;" edge="1" parent="1" source="JNUHl_wFCpTW7_nnJJKe-3" target="JNUHl_wFCpTW7_nnJJKe-12">
          <mxGeometry relative="1" as="geometry">
            <Array as="points">
              <mxPoint x="157" y="596" />
              <mxPoint x="157" y="596" />
            </Array>
          </mxGeometry>
        </mxCell>
        <mxCell id="JNUHl_wFCpTW7_nnJJKe-3" value="&lt;div style=&quot;text-align: justify;&quot;&gt;&lt;span style=&quot;font-size: 24px; background-color: initial;&quot;&gt;WebApplication&lt;/span&gt;&lt;/div&gt;" style="shape=ext;double=1;rounded=0;whiteSpace=wrap;html=1;" vertex="1" parent="1">
          <mxGeometry x="-206" y="532" width="233" height="262" as="geometry" />
        </mxCell>
        <mxCell id="JNUHl_wFCpTW7_nnJJKe-6" value="HTTP Request" style="text;strokeColor=none;fillColor=none;html=1;fontSize=24;fontStyle=1;verticalAlign=middle;align=center;" vertex="1" parent="1">
          <mxGeometry x="252" y="563" width="45" height="15" as="geometry" />
        </mxCell>
        <mxCell id="JNUHl_wFCpTW7_nnJJKe-7" value="HTTP Response" style="text;strokeColor=none;fillColor=none;html=1;fontSize=24;fontStyle=1;verticalAlign=middle;align=center;" vertex="1" parent="1">
          <mxGeometry x="260.5" y="629" width="47" height="15" as="geometry" />
        </mxCell>
        <mxCell id="JNUHl_wFCpTW7_nnJJKe-8" style="edgeStyle=none;curved=1;rounded=0;orthogonalLoop=1;jettySize=auto;html=1;entryX=0.5;entryY=1;entryDx=0;entryDy=0;fontSize=12;startSize=8;endSize=8;exitX=0.5;exitY=0;exitDx=0;exitDy=0;" edge="1" parent="1" source="JNUHl_wFCpTW7_nnJJKe-17" target="JNUHl_wFCpTW7_nnJJKe-12">
          <mxGeometry relative="1" as="geometry">
            <mxPoint x="412" y="815" as="sourcePoint" />
            <mxPoint x="154" y="814" as="targetPoint" />
          </mxGeometry>
        </mxCell>
        <mxCell id="JNUHl_wFCpTW7_nnJJKe-9" value="HTTP Request" style="text;strokeColor=none;fillColor=none;html=1;fontSize=24;fontStyle=1;verticalAlign=middle;align=center;" vertex="1" parent="1">
          <mxGeometry x="648" y="835" width="100" height="40" as="geometry" />
        </mxCell>
        <mxCell id="JNUHl_wFCpTW7_nnJJKe-10" value="Web Socket" style="text;strokeColor=none;fillColor=none;html=1;fontSize=24;fontStyle=1;verticalAlign=middle;align=center;" vertex="1" parent="1">
          <mxGeometry x="186" y="714" width="100" height="40" as="geometry" />
        </mxCell>
        <mxCell id="JNUHl_wFCpTW7_nnJJKe-11" style="edgeStyle=none;curved=1;rounded=0;orthogonalLoop=1;jettySize=auto;html=1;exitX=0.75;exitY=1;exitDx=0;exitDy=0;fontSize=12;startSize=8;endSize=8;" edge="1" source="JNUHl_wFCpTW7_nnJJKe-10" target="JNUHl_wFCpTW7_nnJJKe-10" parent="1">
          <mxGeometry relative="1" as="geometry" />
        </mxCell>
        <mxCell id="JNUHl_wFCpTW7_nnJJKe-25" style="edgeStyle=orthogonalEdgeStyle;rounded=0;orthogonalLoop=1;jettySize=auto;html=1;entryX=1.045;entryY=0.85;entryDx=0;entryDy=0;entryPerimeter=0;" edge="1" parent="1" source="JNUHl_wFCpTW7_nnJJKe-12" target="JNUHl_wFCpTW7_nnJJKe-3">
          <mxGeometry relative="1" as="geometry">
            <mxPoint x="28.4000244140625" y="703.5999755859375" as="targetPoint" />
            <Array as="points">
              <mxPoint x="416" y="755" />
              <mxPoint x="416" y="755" />
            </Array>
          </mxGeometry>
        </mxCell>
        <mxCell id="JNUHl_wFCpTW7_nnJJKe-12" value="&lt;font style=&quot;font-size: 24px;&quot;&gt;Server&lt;/font&gt;" style="shape=ext;double=1;rounded=0;whiteSpace=wrap;html=1;" vertex="1" parent="1">
          <mxGeometry x="526" y="529.5" width="180" height="267" as="geometry" />
        </mxCell>
        <mxCell id="JNUHl_wFCpTW7_nnJJKe-17" value="&lt;font style=&quot;font-size: 24px;&quot;&gt;Raspberry Pi&amp;nbsp;&lt;/font&gt;" style="shape=ext;double=1;rounded=0;whiteSpace=wrap;html=1;" vertex="1" parent="1">
          <mxGeometry x="487" y="906" width="258" height="80" as="geometry" />
        </mxCell>
        <mxCell id="JNUHl_wFCpTW7_nnJJKe-22" style="edgeStyle=orthogonalEdgeStyle;rounded=0;orthogonalLoop=1;jettySize=auto;html=1;" edge="1" parent="1">
          <mxGeometry relative="1" as="geometry">
            <mxPoint x="525" y="624" as="sourcePoint" />
            <mxPoint x="27" y="624" as="targetPoint" />
          </mxGeometry>
        </mxCell>
      </root>
    </mxGraphModel>
  </diagram>
</mxfile>
